<svg width="64" height="64" viewBox="0 0 64 64" fill="none" xmlns="http://www.w3.org/2000/svg">
  <rect width="64" height="64" rx="14" fill="#FFFFFF"/>
  <path d="M17 14H27.5C34.3 14 38.5 17.7 38.5 23.3C38.5 26.6 36.8 29.1 34.1 30.5C38.1 31.8 40.5 34.9 40.5 39.1C40.5 45.6 35.6 50 28.2 50H17V14ZM26.9 28C30.3 28 32.4 26.3 32.4 23.7C32.4 21.1 30.4 19.5 26.9 19.5H23.1V28H26.9ZM27.8 44.5C31.9 44.5 34.2 42.6 34.2 39.4C34.2 36.3 31.9 34.4 27.8 34.4H23.1V44.5H27.8Z" fill="#5BAE7C"/>
  <path d="M43.2 16.4L45.1 21.2L50.2 23.1L45.1 25L43.2 29.8L41.3 25L36.2 23.1L41.3 21.2L43.2 16.4Z" fill="#5BAE7C"/>
</svg>
